<svg width="259" height="140" viewBox="0 0 259 140" fill="none" xmlns="http://www.w3.org/2000/svg">
<rect x="67.5" y="33.5" width="17" height="17" rx="1.5" stroke="#C8C7D1"/>
<rect opacity="0.4" x="93" y="38" width="100" height="8" rx="2" fill="#2F2F2F"/>
<rect x="67" y="61" width="18" height="18" rx="2" fill="white"/>
<rect x="67" y="61" width="18" height="18" rx="2" fill="#6159D4"/>
<path fill-rule="evenodd" clip-rule="evenodd" d="M81.6474 66.8071C82.0992 67.2337 82.1195 67.9457 81.6929 68.3975L75.3179 75.1475C75.1021 75.3759 74.8007 75.5037 74.4865 75.4999C74.1723 75.4961 73.874 75.3611 73.6638 75.1276L70.2888 71.3776C69.8732 70.9158 69.9106 70.2044 70.3724 69.7888C70.8342 69.3732 71.5456 69.4106 71.9612 69.8724L74.5199 72.7154L80.0571 66.8526C80.4837 66.4008 81.1957 66.3805 81.6474 66.8071Z" fill="white"/>
<rect opacity="0.4" x="93" y="66" width="100" height="8" rx="2" fill="#2F2F2F"/>
<rect x="67.5" y="89.5" width="17" height="17" rx="1.5" stroke="#C8C7D1"/>
<rect opacity="0.4" x="93" y="94" width="100" height="8" rx="2" fill="#2F2F2F"/>
</svg>
