<svg width="260" height="140" viewBox="0 0 260 140" fill="none" xmlns="http://www.w3.org/2000/svg">
<rect x="64.5" y="56.5" width="27" height="27" rx="5.5" stroke="#C8C7D1"/>
<path fill-rule="evenodd" clip-rule="evenodd" d="M73 70C73 69.4477 73.3731 69 73.8333 69H82.1667C82.6269 69 83 69.4477 83 70C83 70.5523 82.6269 71 82.1667 71H73.8333C73.3731 71 73 70.5523 73 70Z" fill="#1A1A1A"/>
<rect x="100.5" y="52.5" width="59" height="35" rx="7.5" stroke="#C8C7D1"/>
<rect x="168.5" y="56.5" width="27" height="27" rx="5.5" stroke="#C8C7D1"/>
<path d="M182.833 65.8333C182.833 65.3731 182.46 65 182 65C181.54 65 181.167 65.3731 181.167 65.8333V69.1667H177.833C177.373 69.1667 177 69.5398 177 70C177 70.4602 177.373 70.8333 177.833 70.8333H181.167V74.1667C181.167 74.6269 181.54 75 182 75C182.46 75 182.833 74.6269 182.833 74.1667V70.8333H186.167C186.627 70.8333 187 70.4602 187 70C187 69.5398 186.627 69.1667 186.167 69.1667H182.833V65.8333Z" fill="#1A1A1A"/>
<path d="M127.547 65.5156V74H126.247V66.8047H126.2L124.172 68.1289V66.8984L126.282 65.5156H127.547ZM132.297 74.1172C130.328 74.1172 129.18 72.5352 129.18 69.7578C129.18 67.0039 130.352 65.3984 132.297 65.3984C134.242 65.3984 135.414 67.0039 135.414 69.7578C135.414 72.5352 134.254 74.1172 132.297 74.1172ZM132.297 73.0039C133.445 73.0039 134.125 71.8789 134.125 69.7578C134.125 67.6484 133.434 66.4883 132.297 66.4883C131.16 66.4883 130.469 67.6484 130.469 69.7578C130.469 71.8789 131.148 73.0039 132.297 73.0039Z" fill="#2F2F2F"/>
</svg>
