<svg width="259" height="140" viewBox="0 0 259 140" fill="none" xmlns="http://www.w3.org/2000/svg">
<path d="M43 102H217V110C217 114.418 213.418 118 209 118H51C46.5817 118 43 114.418 43 110V102Z" fill="#ECECEC"/>
<rect x="43.5" y="23.5" width="173" height="94" rx="7.5" stroke="#C8C7D1"/>
<path d="M43 31C43 26.5817 46.5817 23 51 23H209C213.418 23 217 26.5817 217 31V36H43V31Z" fill="#363636"/>
<circle cx="52" cy="30" r="3" fill="#E13953"/>
<circle cx="61" cy="30" r="3" fill="#F4DF44"/>
<circle cx="70" cy="30" r="3" fill="#4FBD56"/>
<rect x="61" y="54" width="60" height="8" rx="2" fill="#ECECEC"/>
<rect x="61" y="68" width="138" height="28" rx="2" fill="#ECECEC"/>
<rect x="43" y="36" width="174" height="10" fill="#6159D4"/>
</svg>
