<svg width="849" height="380" viewBox="0 0 849 380" fill="none" xmlns="http://www.w3.org/2000/svg">
    <circle cx="298" cy="383" r="108" stroke="white" stroke-opacity="0.4" stroke-width="4"/>
    <circle cx="298" cy="383" r="40" fill="white" fill-opacity="0.7"/>
    <circle cx="298" cy="383" r="218" stroke="white" stroke-opacity="0.4" stroke-width="4"/>
    <circle cx="298" cy="383" r="329" stroke="white" stroke-opacity="0.4" stroke-width="4"/>
    <circle cx="298" cy="383" r="439" stroke="white" stroke-opacity="0.4" stroke-width="4"/>
    <circle cx="298" cy="383" r="549" stroke="white" stroke-opacity="0.4" stroke-width="4"/>
    <circle cx="110" cy="265" r="40" fill="#FBA3D3"/>
    <circle cx="465" cy="96" r="65" fill="#266CCD"/>
    <circle cx="733.5" cy="357.5" r="25.5" fill="#FFDE8A"/>
    <path d="M743.213 358.334L737.754 359.948L741.202 364.69C741.383 364.901 741.487 365.168 741.496 365.446C741.495 365.568 741.463 365.687 741.403 365.793C741.343 365.899 741.257 365.988 741.153 366.051L738.054 368.369C737.911 368.474 737.738 368.53 737.561 368.528C737.399 368.515 737.242 368.462 737.105 368.374C736.968 368.286 736.854 368.166 736.773 368.024L733.528 363.132L730.282 368.024C730.202 368.166 730.089 368.286 729.951 368.374C729.814 368.462 729.657 368.515 729.494 368.528C729.318 368.53 729.145 368.474 729.003 368.369L725.855 366.051C725.751 365.988 725.664 365.899 725.604 365.793C725.544 365.687 725.511 365.568 725.51 365.446C725.52 365.168 725.624 364.902 725.804 364.69L729.248 359.949L723.837 358.336C723.395 358.186 723.002 357.882 723.002 357.478C722.994 357.391 723.012 357.304 723.053 357.227L724.283 353.395C724.311 353.248 724.391 353.117 724.508 353.025C724.624 352.932 724.77 352.884 724.919 352.89C725.103 352.9 725.284 352.934 725.459 352.992L730.917 354.857L730.771 349.058V349.009C730.771 348.454 731.016 348 731.557 348H735.492C736.033 348 736.231 348.454 736.231 349.058L736.181 354.857L741.541 352.992C741.716 352.934 741.898 352.9 742.082 352.89C742.231 352.885 742.377 352.933 742.493 353.025C742.61 353.118 742.69 353.249 742.719 353.395L743.949 357.227C743.985 357.305 744.003 357.391 744 357.478C744.001 357.932 743.656 358.185 743.213 358.334Z" fill="white" fill-opacity="0.8"/>
    <path d="M110 247.5C107.702 247.5 105.426 247.953 103.303 248.832C101.18 249.712 99.2507 251.001 97.6256 252.626C94.3437 255.908 92.5 260.359 92.5 265C92.5 272.735 97.5225 279.298 104.47 281.625C105.345 281.765 105.625 281.222 105.625 280.75V277.792C100.778 278.842 99.745 275.447 99.745 275.447C98.94 273.417 97.8025 272.875 97.8025 272.875C96.21 271.79 97.925 271.825 97.925 271.825C99.675 271.948 100.602 273.628 100.602 273.628C102.125 276.288 104.698 275.5 105.695 275.08C105.852 273.943 106.307 273.173 106.798 272.735C102.913 272.298 98.835 270.792 98.835 264.125C98.835 262.182 99.5 260.625 100.637 259.382C100.463 258.945 99.85 257.125 100.812 254.763C100.812 254.763 102.283 254.29 105.625 256.548C107.007 256.163 108.513 255.97 110 255.97C111.487 255.97 112.993 256.163 114.375 256.548C117.718 254.29 119.188 254.763 119.188 254.763C120.15 257.125 119.538 258.945 119.363 259.382C120.5 260.625 121.165 262.182 121.165 264.125C121.165 270.81 117.07 272.28 113.168 272.717C113.798 273.26 114.375 274.328 114.375 275.955V280.75C114.375 281.222 114.655 281.783 115.548 281.625C122.495 279.28 127.5 272.735 127.5 265C127.5 262.702 127.047 260.426 126.168 258.303C125.288 256.18 123.999 254.251 122.374 252.626C120.749 251.001 118.82 249.712 116.697 248.832C114.574 247.953 112.298 247.5 110 247.5Z" fill="white" fill-opacity="0.8"/>
    <path d="M486.204 76.5458C482.325 74.7375 478.125 73.425 473.75 72.6666C473.673 72.6677 473.6 72.6992 473.546 72.7541C473.021 73.7166 472.408 74.9708 472 75.9333C467.36 75.2337 462.64 75.2337 458 75.9333C457.592 74.9416 456.979 73.7166 456.425 72.7541C456.396 72.6958 456.308 72.6666 456.221 72.6666C451.846 73.425 447.675 74.7375 443.767 76.5458C443.738 76.5458 443.708 76.575 443.679 76.6041C435.746 88.475 433.558 100.025 434.638 111.458C434.638 111.517 434.667 111.575 434.725 111.604C439.975 115.454 445.021 117.787 450.008 119.333C450.096 119.362 450.183 119.333 450.213 119.275C451.379 117.671 452.429 115.979 453.333 114.2C453.392 114.083 453.333 113.967 453.217 113.937C451.554 113.296 449.979 112.537 448.433 111.662C448.317 111.604 448.317 111.429 448.404 111.342C448.725 111.108 449.046 110.846 449.367 110.612C449.425 110.554 449.513 110.554 449.571 110.583C459.604 115.162 470.425 115.162 480.342 110.583C480.4 110.554 480.488 110.554 480.546 110.612C480.867 110.875 481.188 111.108 481.508 111.371C481.625 111.458 481.625 111.633 481.479 111.692C479.963 112.596 478.358 113.325 476.696 113.967C476.579 113.996 476.55 114.142 476.579 114.229C477.513 116.008 478.563 117.7 479.7 119.304C479.788 119.333 479.875 119.362 479.963 119.333C484.979 117.787 490.025 115.454 495.275 111.604C495.333 111.575 495.363 111.517 495.363 111.458C496.646 98.2458 493.233 86.7833 486.321 76.6041C486.292 76.575 486.263 76.5458 486.204 76.5458ZM454.85 104.487C451.846 104.487 449.338 101.717 449.338 98.3041C449.338 94.8916 451.788 92.1208 454.85 92.1208C457.942 92.1208 460.392 94.9208 460.363 98.3041C460.363 101.717 457.913 104.487 454.85 104.487ZM475.179 104.487C472.175 104.487 469.667 101.717 469.667 98.3041C469.667 94.8916 472.117 92.1208 475.179 92.1208C478.271 92.1208 480.721 94.9208 480.692 98.3041C480.692 101.717 478.271 104.487 475.179 104.487Z" fill="white" fill-opacity="0.8"/>
</svg>
